<svg width="20" height="20" viewBox="0 0 20 20" fill="none" xmlns="http://www.w3.org/2000/svg">
<g id="fi_3114931">
<path id="Vector" d="M1.07752 9.41077L6.91085 3.57743C7.06802 3.42563 7.27852 3.34164 7.49702 3.34354C7.71552 3.34544 7.92453 3.43308 8.07904 3.58758C8.23354 3.74209 8.32118 3.9511 8.32308 4.1696C8.32498 4.3881 8.24099 4.5986 8.08919 4.75577L3.67835 9.1666H18.3334C18.5544 9.1666 18.7663 9.2544 18.9226 9.41068C19.0789 9.56696 19.1667 9.77892 19.1667 9.99993C19.1667 10.2209 19.0789 10.4329 18.9226 10.5892C18.7663 10.7455 18.5544 10.8333 18.3334 10.8333H3.67835L8.08919 15.2441C8.16878 15.321 8.23226 15.4129 8.27594 15.5146C8.31961 15.6163 8.3426 15.7256 8.34356 15.8363C8.34452 15.9469 8.32344 16.0566 8.28154 16.1591C8.23964 16.2615 8.17776 16.3545 8.09952 16.4328C8.02127 16.511 7.92823 16.5729 7.82582 16.6148C7.7234 16.6567 7.61367 16.6778 7.50302 16.6768C7.39237 16.6758 7.28302 16.6529 7.18135 16.6092C7.07968 16.5655 6.98773 16.502 6.91085 16.4224L1.07752 10.5891C0.921295 10.4328 0.833532 10.2209 0.833532 9.99993C0.833532 9.77896 0.921295 9.56704 1.07752 9.41077Z" fill="#5646CC"/>
</g>
</svg>
